<svg xmlns="http://www.w3.org/2000/svg" viewBox="0 0 422.68 286.42"><defs><style>.cls-1{fill:none;}.cls-2{fill:#1c75bc;}.cls-2,.cls-3{stroke:#231f20;stroke-miterlimit:10;}.cls-3{fill:#231f20;}</style></defs><g id="Layer_3" data-name="Layer 3"><line class="cls-1" x1="421.61" y1="113.36" x2="422.68" y2="113.36"/></g><g id="Layer_2" data-name="Layer 2"><path class="cls-2" d="M374.61,425.91c0,70.29-34.46,127.27-77,127.27s-77-57-77-127.27c0-43,12.88-81,32.6-104a46.93,46.93,0,0,0,88.74,0C361.73,344.94,374.61,382.94,374.61,425.91Z" transform="translate(-188.94 -267.26)"/><circle class="cls-2" cx="186.23" cy="76.38" r="14.33"/><circle class="cls-2" cx="202.58" cy="156.15" r="14.33"/><circle class="cls-2" cx="182.45" cy="249.07" r="14.33"/><circle class="cls-2" cx="108.7" cy="38.44" r="37.94"/><circle class="cls-3" cx="120.17" cy="16.08" r="5.97"/><circle class="cls-3" cx="97.67" cy="16.08" r="5.97"/><circle class="cls-2" cx="34.49" cy="249.07" r="14.33"/><circle class="cls-2" cx="14.83" cy="160" r="14.33"/><circle class="cls-2" cx="30.21" cy="77.51" r="14.33"/></g></svg>