<?xml version="1.0" encoding="utf-8"?>
<!-- Generator: Adobe Illustrator 25.4.1, SVG Export Plug-In . SVG Version: 6.00 Build 0)  -->
<svg version="1.1" id="Layer_1" xmlns="http://www.w3.org/2000/svg" xmlns:xlink="http://www.w3.org/1999/xlink" x="0px" y="0px"
	 viewBox="0 0 531.7 435.4" style="enable-background:new 0 0 531.7 435.4;" xml:space="preserve">
<style type="text/css">
	.st0{fill:none;}
	.st1{fill:#FFFFFF;stroke:#231F20;stroke-miterlimit:10;}
	.st2{fill:#1C75BC;stroke:#231F20;stroke-miterlimit:10;}
	.st3{fill:#231F20;stroke:#231F20;stroke-miterlimit:10;}
</style>
<g id="Layer_3">
	<line class="st0" x1="574.6" y1="177.4" x2="575.7" y2="177.4"/>
	<circle class="st1" cx="261.7" cy="217.7" r="217.2"/>
</g>
<g id="Layer_2_00000166675723702032562660000006338037900176684426_">
	<path class="st2" d="M350.5,226.2c0,79.5-39,143.9-87,143.9s-87-64.4-87-143.9c0-48.6,14.6-91.5,36.9-117.6
		c9.5,27.7,39.7,42.4,67.5,32.9c15.4-5.3,27.6-17.4,32.9-32.9C335.9,134.6,350.5,177.6,350.5,226.2z"/>
	<circle class="st2" cx="351.1" cy="133.1" r="16.2"/>
	<circle class="st2" cx="366.1" cy="220.6" r="16.2"/>
	<circle class="st2" cx="346.8" cy="328.4" r="16.2"/>
	
		<ellipse transform="matrix(0.1602 -0.9871 0.9871 0.1602 132.1821 335.8615)" class="st2" cx="263.5" cy="90.2" rx="42.9" ry="42.9"/>
	<circle class="st3" cx="276.4" cy="65" r="6.8"/>
	<circle class="st3" cx="251" cy="65" r="6.8"/>
	<circle class="st2" cx="179.6" cy="328.4" r="16.2"/>
	<circle class="st2" cx="157.3" cy="227.7" r="16.2"/>
	<circle class="st2" cx="174.7" cy="134.4" r="16.2"/>
</g>
</svg>
