<svg xmlns="http://www.w3.org/2000/svg" viewBox="0 0 654.96 100.94"><defs><style>.cls-1{fill:#1c75bc;}.cls-1,.cls-2{stroke:#231f20;stroke-miterlimit:10;}.cls-2{fill:#231f20;}.cls-3{fill:#fff;}.cls-4{fill:none;}</style></defs><g id="Layer_2" data-name="Layer 2"><path class="cls-1" d="M93.73,426.35c0,24.61-12.07,44.57-27,44.57s-26.95-20-26.95-44.57c0-15.05,4.51-28.35,11.42-36.42a16.43,16.43,0,0,0,31.07,0C89.22,398,93.73,411.3,93.73,426.35Z" transform="translate(-28.39 -370.47)"/><circle class="cls-1" cx="65.54" cy="27.07" r="5.02"/><circle class="cls-1" cx="71.26" cy="55" r="5.02"/><circle class="cls-1" cx="64.21" cy="87.54" r="5.02"/><circle class="cls-1" cx="38.39" cy="13.78" r="13.28"/><circle class="cls-2" cx="42.41" cy="5.95" r="2.09"/><circle class="cls-2" cx="34.53" cy="5.95" r="2.09"/><circle class="cls-1" cx="12.4" cy="87.54" r="5.02"/><circle class="cls-1" cx="5.52" cy="56.35" r="5.02"/><circle class="cls-1" cx="10.9" cy="27.47" r="5.02"/><path class="cls-3" d="M155.75,377a79.56,79.56,0,0,1,11.93.9,33.73,33.73,0,0,1,10.68,3.42,20.45,20.45,0,0,1,7.7,7.08q2.94,4.56,2.94,11.88a20.8,20.8,0,0,1-2.13,9.59,22.08,22.08,0,0,1-6.13,7.32,22.42,22.42,0,0,1,7.88,7.5,21.44,21.44,0,0,1,2.95,11.69q0,8-3,13a23,23,0,0,1-7.93,8,32.33,32.33,0,0,1-11.17,4,73.83,73.83,0,0,1-12.73,1.09H121.84V377Zm-8.64,31.35h10.35a12.5,12.5,0,0,0,4.66-.71c1.14-.48,1.71-1.63,1.71-3.47a3.23,3.23,0,0,0-1.57-3.13,10.35,10.35,0,0,0-4.8-.86H147.11Zm0,31.35h12.25a27.41,27.41,0,0,0,2.76-.14,7.3,7.3,0,0,0,2.33-.62,3.6,3.6,0,0,0,1.56-1.38,4.69,4.69,0,0,0,.57-2.51c0-1.84-.65-3-1.94-3.52a15.06,15.06,0,0,0-5.28-.76H147.11Z" transform="translate(-28.39 -370.47)"/><path class="cls-3" d="M227.57,377v62.23h36.29v23.27H202V377Z" transform="translate(-28.39 -370.47)"/><path class="cls-3" d="M307.94,463.72a51.23,51.23,0,0,1-15.3-2.09,27.21,27.21,0,0,1-11.16-6.56,28.47,28.47,0,0,1-6.84-11.4A52.86,52.86,0,0,1,272.31,427V377h25.56v50.35q0,6.94,2.56,10.21a8.63,8.63,0,0,0,7.22,3.28,8.82,8.82,0,0,0,7.41-3.28q2.56-3.27,2.57-10.21V377h25.55v50a53.84,53.84,0,0,1-2.28,16.72,28.19,28.19,0,0,1-6.74,11.4,26.88,26.88,0,0,1-11,6.56A50.22,50.22,0,0,1,307.94,463.72Z" transform="translate(-28.39 -370.47)"/><path class="cls-3" d="M411.68,431.23H378.24v8h36.29v23.27H352.68V377h60.23v23.28H378.24v7.79h33.44Z" transform="translate(-28.39 -370.47)"/><path class="cls-3" d="M478.55,377.77a78.27,78.27,0,0,1,11.93.91,33.23,33.23,0,0,1,10.68,3.42,20.27,20.27,0,0,1,7.7,7.07q2.94,4.56,2.94,11.88a20.8,20.8,0,0,1-2.13,9.59,22.08,22.08,0,0,1-6.13,7.32,22.42,22.42,0,0,1,7.88,7.5,21.44,21.44,0,0,1,2.95,11.69q0,8-3,13a23,23,0,0,1-7.93,8,32.13,32.13,0,0,1-11.17,4,73.83,73.83,0,0,1-12.73,1.09H444.64v-85.5Zm-8.64,31.35h10.35a12.29,12.29,0,0,0,4.66-.71c1.14-.47,1.71-1.63,1.71-3.47a3.23,3.23,0,0,0-1.57-3.13,10.35,10.35,0,0,0-4.8-.86H469.91Zm0,31.35h12.25a24.75,24.75,0,0,0,2.76-.14,7,7,0,0,0,2.33-.62,3.64,3.64,0,0,0,1.56-1.37,4.73,4.73,0,0,0,.57-2.52c0-1.84-.65-3-1.94-3.52a15.06,15.06,0,0,0-5.28-.76H469.91Z" transform="translate(-28.39 -370.47)"/><path class="cls-3" d="M558.54,464.51a51.12,51.12,0,0,1-15.29-2.09,27.08,27.08,0,0,1-11.16-6.56,28.33,28.33,0,0,1-6.84-11.4,52.57,52.57,0,0,1-2.33-16.72v-50h25.55v50.35q0,6.94,2.57,10.22a8.64,8.64,0,0,0,7.22,3.27,8.86,8.86,0,0,0,7.41-3.27q2.57-3.29,2.56-10.22V377.77h25.56v50a53.84,53.84,0,0,1-2.28,16.72,28.19,28.19,0,0,1-6.75,11.4,26.81,26.81,0,0,1-11,6.56A50.18,50.18,0,0,1,558.54,464.51Z" transform="translate(-28.39 -370.47)"/><path class="cls-3" d="M669.74,459.05a63.35,63.35,0,0,1-17.2,4.84,58.7,58.7,0,0,1-7.55.52q-42.66,0-42.65-43.79,0-12.63,3.27-21.14A32.52,32.52,0,0,1,615,385.9a36,36,0,0,1,14.58-7.22,77.6,77.6,0,0,1,19-2.14,60.57,60.57,0,0,1,7.26.47c2.57.32,5.05.75,7.46,1.29s4.62,1.14,6.65,1.8a28.82,28.82,0,0,1,4.75,1.95v22.13a31.5,31.5,0,0,0-5.22-1.66q-3.33-.81-7.08-1.38c-2.5-.38-4.94-.69-7.32-.95a58.08,58.08,0,0,0-5.84-.38,44.56,44.56,0,0,0-9.55.91,15.9,15.9,0,0,0-6.93,3.23,13.84,13.84,0,0,0-4.18,6.36,32.41,32.41,0,0,0-1.38,10.31,29.81,29.81,0,0,0,1.33,9.59,14.22,14.22,0,0,0,10.21,9.69,32,32,0,0,0,8.6,1.05c.82,0,1.74,0,2.76-.1s2.12-.15,3.32-.28v-6.94H641.48v-22h36.86v42.66A54.26,54.26,0,0,1,669.74,459.05Z" transform="translate(-28.39 -370.47)"/></g><g id="Layer_3" data-name="Layer 3"><line class="cls-4" x1="653.89" y1="10.15" x2="654.96" y2="10.15"/></g></svg>